<svg xmlns="http://www.w3.org/2000/svg" viewBox="7573.96 440.957 26 26" height="26" width="26">
  <defs>
    <style>
      .cls-1 {
        fill: #000;
        opacity: 0.500;
      }

      .cls-2 {
        fill: #fff;
      }
    </style>
  </defs>
  <g id="Group_160" data-name="Group 160" transform="translate(7067.96 -1269.043)">
    <circle id="Ellipse_67" data-name="Ellipse 67" class="cls-1" cx="13" cy="13" r="13" transform="translate(506 1710)"/>
    <path id="Play" class="cls-2" d="M1.22,0H.553A.675.675,0,0,0,.109.109.674.674,0,0,0,0,.554V9.887a.4.4,0,0,0,.111.333.675.675,0,0,0,.444.111H1.22a1.047,1.047,0,0,0,.556-.111L9.553,5.665a.482.482,0,0,0,.222-.444.482.482,0,0,0-.222-.444L1.775.109A1.045,1.045,0,0,0,1.22,0Z" transform="translate(515.114 1717.78)"/>
  </g>
</svg>
